<svg width="320" height="220" viewBox="0 0 320 220" fill="none" xmlns="http://www.w3.org/2000/svg">
  <defs>
    <linearGradient id="bg" x1="24" y1="20" x2="294" y2="204" gradientUnits="userSpaceOnUse">
      <stop stop-color="#0F1A27"/>
      <stop offset="0.56" stop-color="#122133"/>
      <stop offset="1" stop-color="#09131D"/>
    </linearGradient>
    <linearGradient id="mist" x1="52" y1="36" x2="196" y2="162" gradientUnits="userSpaceOnUse">
      <stop stop-color="#6BB8FF" stop-opacity="0.2"/>
      <stop offset="1" stop-color="#6BB8FF" stop-opacity="0"/>
    </linearGradient>
    <linearGradient id="plane" x1="-24" y1="0" x2="24" y2="0" gradientUnits="userSpaceOnUse">
      <stop stop-color="#F8FBFF"/>
      <stop offset="1" stop-color="#D7E4F3"/>
    </linearGradient>
    <filter id="blur" x="0" y="0" width="320" height="220" filterUnits="userSpaceOnUse">
      <feGaussianBlur stdDeviation="10"/>
    </filter>
  </defs>
  <rect width="320" height="220" rx="28" fill="url(#bg)"/>
  <rect x="18" y="18" width="284" height="184" rx="22" fill="#102031" stroke="#253D55" stroke-width="2"/>
  <circle cx="258" cy="56" r="24" fill="#FFB454" fill-opacity="0.17"/>
  <circle cx="78" cy="48" r="56" fill="url(#mist)" filter="url(#blur)"/>
  <path d="M40 70H280" stroke="#37536A" stroke-opacity="0.65" stroke-dasharray="6 8"/>
  <path d="M40 110H280" stroke="#37536A" stroke-opacity="0.45" stroke-dasharray="6 8"/>
  <path d="M40 150H280" stroke="#37536A" stroke-opacity="0.45" stroke-dasharray="6 8"/>
  <circle cx="60" cy="82" r="2.4" fill="#E8F1FF" fill-opacity="0.8"/>
  <circle cx="104" cy="58" r="1.8" fill="#FFB454" fill-opacity="0.82"/>
  <circle cx="152" cy="92" r="2" fill="#E8F1FF" fill-opacity="0.72"/>
  <circle cx="206" cy="72" r="1.8" fill="#6BB8FF" fill-opacity="0.9"/>
  <circle cx="250" cy="94" r="2.2" fill="#E8F1FF" fill-opacity="0.74"/>
  <circle cx="276" cy="126" r="1.9" fill="#FFB454" fill-opacity="0.78"/>
  <path d="M24 176C32 172 40 168 48 162" stroke="#6BB8FF" stroke-width="5" stroke-linecap="round" stroke-opacity="0.28"/>
  <path d="M28 188C36 184 48 178 58 170" stroke="#6BB8FF" stroke-width="3" stroke-linecap="round" stroke-opacity="0.48"/>
  <ellipse cx="60" cy="170" rx="24" ry="7" fill="#000000" fill-opacity="0.22"/>
  <g transform="translate(56 152) rotate(-14)">
    <path d="M-24 0L24 -12L0 0L24 12L-24 0Z" fill="url(#plane)" stroke="#E8F1FF" stroke-width="2" stroke-linejoin="round"/>
    <path d="M0 0L24 -12" stroke="#91A6BC" stroke-width="2"/>
    <path d="M0 0L24 12" stroke="#91A6BC" stroke-width="2"/>
    <path d="M-8 -3L8 0L-8 3" stroke="#8EB8DE" stroke-width="2" stroke-linecap="round"/>
  </g>
  <path d="M82 132L84 137L89 139L84 141L82 146L80 141L75 139L80 137L82 132Z" fill="#FFB454" fill-opacity="0.92"/>
  <text x="24" y="193" fill="#91A6BC" font-family="Avenir Next, Trebuchet MS, sans-serif" font-size="13" font-weight="700">Frame 01</text>
</svg>