<svg width="320" height="220" viewBox="0 0 320 220" fill="none" xmlns="http://www.w3.org/2000/svg">
  <defs>
    <linearGradient id="bg" x1="24" y1="20" x2="294" y2="204" gradientUnits="userSpaceOnUse">
      <stop stop-color="#0F1A27"/>
      <stop offset="0.56" stop-color="#122133"/>
      <stop offset="1" stop-color="#09131D"/>
    </linearGradient>
    <linearGradient id="mist" x1="208" y1="34" x2="314" y2="172" gradientUnits="userSpaceOnUse">
      <stop stop-color="#6BB8FF" stop-opacity="0.15"/>
      <stop offset="1" stop-color="#6BB8FF" stop-opacity="0"/>
    </linearGradient>
    <linearGradient id="plane" x1="-24" y1="0" x2="24" y2="0" gradientUnits="userSpaceOnUse">
      <stop stop-color="#F8FBFF"/>
      <stop offset="1" stop-color="#D7E4F3"/>
    </linearGradient>
    <filter id="blur" x="0" y="0" width="320" height="220" filterUnits="userSpaceOnUse">
      <feGaussianBlur stdDeviation="10"/>
    </filter>
  </defs>
  <rect width="320" height="220" rx="28" fill="url(#bg)"/>
  <rect x="18" y="18" width="284" height="184" rx="22" fill="#102031" stroke="#253D55" stroke-width="2"/>
  <circle cx="258" cy="56" r="24" fill="#FFB454" fill-opacity="0.17"/>
  <circle cx="240" cy="54" r="46" fill="url(#mist)" filter="url(#blur)"/>
  <path d="M40 70H280" stroke="#37536A" stroke-opacity="0.65" stroke-dasharray="6 8"/>
  <path d="M40 110H280" stroke="#37536A" stroke-opacity="0.45" stroke-dasharray="6 8"/>
  <path d="M40 150H280" stroke="#37536A" stroke-opacity="0.45" stroke-dasharray="6 8"/>
  <circle cx="118" cy="80" r="2.4" fill="#E8F1FF" fill-opacity="0.8"/>
  <circle cx="180" cy="50" r="1.8" fill="#FFB454" fill-opacity="0.82"/>
  <circle cx="216" cy="78" r="2" fill="#E8F1FF" fill-opacity="0.72"/>
  <circle cx="254" cy="62" r="1.8" fill="#6BB8FF" fill-opacity="0.9"/>
  <circle cx="284" cy="84" r="2.2" fill="#E8F1FF" fill-opacity="0.74"/>
  <circle cx="296" cy="110" r="1.9" fill="#FFB454" fill-opacity="0.78"/>
  <path d="M24 166C178 166 244 174 280 158" stroke="#6BB8FF" stroke-width="5" stroke-linecap="round" stroke-opacity="0.26"/>
  <path d="M28 178C186 178 250 186 282 172" stroke="#6BB8FF" stroke-width="3" stroke-linecap="round" stroke-opacity="0.46"/>
  <ellipse cx="292" cy="156" rx="20" ry="7" fill="#000000" fill-opacity="0.22"/>
  <g transform="translate(288 140) rotate(22)">
    <path d="M-24 0L24 -12L0 0L24 12L-24 0Z" fill="url(#plane)" stroke="#E8F1FF" stroke-width="2" stroke-linejoin="round"/>
    <path d="M0 0L24 -12" stroke="#91A6BC" stroke-width="2"/>
    <path d="M0 0L24 12" stroke="#91A6BC" stroke-width="2"/>
    <path d="M-8 -3L8 0L-8 3" stroke="#8EB8DE" stroke-width="2" stroke-linecap="round"/>
  </g>
  <path d="M306 138L308 143L313 145L308 147L306 152L304 147L299 145L304 143L306 138Z" fill="#FFB454" fill-opacity="0.94"/>
  <text x="24" y="193" fill="#91A6BC" font-family="Avenir Next, Trebuchet MS, sans-serif" font-size="13" font-weight="700">Frame 11</text>
</svg>